<svg width="512" height="512" viewBox="0 0 512 512" fill="none" xmlns="http://www.w3.org/2000/svg">
<path d="M0 421H205.261L185.151 482H121V512H391V482H326.849L306.739 421H512V0H0V421ZM295.261 482H216.74L236.85 421H275.152L295.261 482ZM30 30H482V391H30V30Z" fill="#5B3DC9"/>
<path d="M256 60C173.07 60 105 128.088 105 211C105 293.71 172.738 361 256 361C338.71 361 406 293.71 406 211C406 127.738 338.71 60 256 60ZM256 331C189.28 331 135 277.168 135 211C135 144.28 189.28 90 256 90C322.168 90 376 144.28 376 211C376 277.168 322.168 331 256 331Z" fill="#5B3DC9"/>
<path d="M256 60C173.07 60 105 128.088 105 211C105 293.71 172.738 361 256 361C338.71 361 406 293.71 406 211C406 127.738 338.71 60 256 60ZM256 331C189.28 331 135 277.168 135 211C135 144.28 189.28 90 256 90C322.168 90 376 144.28 376 211C376 277.168 322.168 331 256 331Z" stroke="#5B3DC9"/>
<path d="M233.573 215.688C224.342 215.688 216.833 223.197 216.833 232.428V274.26C216.833 283.49 224.342 291 233.573 291C242.803 291 250.313 283.491 250.313 274.26V232.428C250.313 223.197 242.803 215.688 233.573 215.688V215.688Z" fill="#5B3DC9"/>
<path d="M207.457 215.688H191.251C182.315 215.688 175.045 222.958 175.045 231.894C175.045 240.83 182.315 248.1 191.251 248.1C200.187 248.1 207.457 240.83 207.457 231.894V215.688Z" fill="#5B3DC9"/>
<path d="M175 189.573C175 198.803 182.509 206.313 191.74 206.313H233.572C242.803 206.313 250.313 198.803 250.313 189.573C250.313 180.342 242.803 172.833 233.573 172.833H191.74C182.509 172.832 175 180.342 175 189.573V189.573Z" fill="#5B3DC9"/>
<path d="M234.106 163.457H250.313V147.251C250.313 138.315 243.042 131.045 234.106 131.045C225.17 131.045 217.9 138.315 217.9 147.251C217.9 156.187 225.17 163.457 234.106 163.457Z" fill="#5B3DC9"/>
<path d="M276.428 206.313C285.658 206.313 293.168 198.803 293.168 189.573V147.74C293.168 138.509 285.658 131 276.428 131C267.197 131 259.688 138.509 259.688 147.74V189.572C259.688 198.803 267.197 206.313 276.428 206.313Z" fill="#5B3DC9"/>
<path d="M302.543 206.313H318.749C327.685 206.313 334.955 199.042 334.955 190.106C334.955 181.17 327.685 173.9 318.749 173.9C309.813 173.9 302.543 181.17 302.543 190.106V206.313Z" fill="#5B3DC9"/>
<path d="M335 232.428C335 223.197 327.491 215.688 318.26 215.688H276.428C267.197 215.688 259.688 223.197 259.688 232.428C259.688 241.658 267.197 249.168 276.428 249.168H318.26C327.491 249.168 335 241.658 335 232.428Z" fill="#5B3DC9"/>
<path d="M275.894 258.543H259.688V274.749C259.688 283.685 266.958 290.955 275.894 290.955C284.83 290.955 292.1 283.685 292.1 274.749C292.1 265.813 284.83 258.543 275.894 258.543Z" fill="#5B3DC9"/>
</svg>
